<mxfile host="app.diagrams.net" modified="2021-09-23T19:24:31.363Z" agent="5.0 (Macintosh; Intel Mac OS X 10_15_7) AppleWebKit/537.36 (KHTML, like Gecko) Chrome/94.0.4606.54 Safari/537.36" etag="zYXcAMCgYKVUSB0ljhn9" version="15.2.9" type="github">
  <diagram id="R2lEEEUBdFMjLlhIrx00" name="Page-1">
    <mxGraphModel dx="1888" dy="937" grid="1" gridSize="10" guides="1" tooltips="1" connect="1" arrows="1" fold="1" page="1" pageScale="1" pageWidth="850" pageHeight="1100" math="0" shadow="0" extFonts="Permanent Marker^https://fonts.googleapis.com/css?family=Permanent+Marker">
      <root>
        <mxCell id="0" />
        <mxCell id="1" parent="0" />
        <mxCell id="4qD5-4n64g_TP-5ePpoe-1" value="&lt;font style=&quot;font-size: 15px&quot;&gt;&lt;u&gt;Hub_ID&lt;/u&gt;&lt;/font&gt;" style="ellipse;whiteSpace=wrap;html=1;" vertex="1" parent="1">
          <mxGeometry x="210" y="335" width="80" height="40" as="geometry" />
        </mxCell>
        <mxCell id="4qD5-4n64g_TP-5ePpoe-2" value="&lt;font style=&quot;font-size: 18px&quot;&gt;Hub&lt;/font&gt;" style="rounded=0;whiteSpace=wrap;html=1;" vertex="1" parent="1">
          <mxGeometry x="300" y="295" width="100" height="40" as="geometry" />
        </mxCell>
        <mxCell id="4qD5-4n64g_TP-5ePpoe-3" value="" style="endArrow=none;html=1;entryX=0;entryY=0.5;entryDx=0;entryDy=0;exitX=1;exitY=0.5;exitDx=0;exitDy=0;" edge="1" parent="1" source="4qD5-4n64g_TP-5ePpoe-1" target="4qD5-4n64g_TP-5ePpoe-2">
          <mxGeometry width="50" height="50" relative="1" as="geometry">
            <mxPoint x="320" y="575" as="sourcePoint" />
            <mxPoint x="370" y="525" as="targetPoint" />
          </mxGeometry>
        </mxCell>
        <mxCell id="4qD5-4n64g_TP-5ePpoe-4" value="&lt;font style=&quot;font-size: 18px&quot;&gt;Drone&lt;/font&gt;" style="rounded=0;whiteSpace=wrap;html=1;" vertex="1" parent="1">
          <mxGeometry x="300" y="505" width="100" height="50" as="geometry" />
        </mxCell>
        <mxCell id="4qD5-4n64g_TP-5ePpoe-6" value="" style="endArrow=none;html=1;exitX=0.5;exitY=1;exitDx=0;exitDy=0;entryX=0.5;entryY=0;entryDx=0;entryDy=0;" edge="1" parent="1" source="4qD5-4n64g_TP-5ePpoe-4" target="4qD5-4n64g_TP-5ePpoe-63">
          <mxGeometry width="50" height="50" relative="1" as="geometry">
            <mxPoint x="320" y="565" as="sourcePoint" />
            <mxPoint x="370" y="515" as="targetPoint" />
          </mxGeometry>
        </mxCell>
        <mxCell id="4qD5-4n64g_TP-5ePpoe-8" value="" style="endArrow=none;html=1;exitX=0.5;exitY=0;exitDx=0;exitDy=0;entryX=0.5;entryY=1;entryDx=0;entryDy=0;" edge="1" parent="1" source="4qD5-4n64g_TP-5ePpoe-62" target="4qD5-4n64g_TP-5ePpoe-4">
          <mxGeometry width="50" height="50" relative="1" as="geometry">
            <mxPoint x="320" y="555" as="sourcePoint" />
            <mxPoint x="300" y="530" as="targetPoint" />
          </mxGeometry>
        </mxCell>
        <mxCell id="4qD5-4n64g_TP-5ePpoe-12" value="&lt;font style=&quot;font-size: 18px&quot;&gt;operates&lt;/font&gt;" style="rhombus;whiteSpace=wrap;html=1;" vertex="1" parent="1">
          <mxGeometry x="275" y="385" width="150" height="50" as="geometry" />
        </mxCell>
        <mxCell id="4qD5-4n64g_TP-5ePpoe-13" value="" style="endArrow=none;html=1;exitX=0.5;exitY=0;exitDx=0;exitDy=0;entryX=0.5;entryY=1;entryDx=0;entryDy=0;" edge="1" parent="1" source="4qD5-4n64g_TP-5ePpoe-12" target="4qD5-4n64g_TP-5ePpoe-2">
          <mxGeometry width="50" height="50" relative="1" as="geometry">
            <mxPoint x="300" y="385" as="sourcePoint" />
            <mxPoint x="350" y="335" as="targetPoint" />
          </mxGeometry>
        </mxCell>
        <mxCell id="4qD5-4n64g_TP-5ePpoe-15" value="&lt;font style=&quot;font-size: 18px&quot;&gt;Employee&lt;/font&gt;" style="rounded=0;whiteSpace=wrap;html=1;" vertex="1" parent="1">
          <mxGeometry x="590" y="445" width="100" height="60" as="geometry" />
        </mxCell>
        <mxCell id="4qD5-4n64g_TP-5ePpoe-16" value="&lt;font style=&quot;font-size: 18px&quot;&gt;&lt;u&gt;Employee_ID&lt;/u&gt;&lt;/font&gt;" style="ellipse;whiteSpace=wrap;html=1;" vertex="1" parent="1">
          <mxGeometry x="460" y="575" width="120" height="60" as="geometry" />
        </mxCell>
        <mxCell id="4qD5-4n64g_TP-5ePpoe-17" value="&lt;font style=&quot;font-size: 18px&quot;&gt;name&lt;/font&gt;" style="ellipse;whiteSpace=wrap;html=1;" vertex="1" parent="1">
          <mxGeometry x="580" y="595" width="120" height="60" as="geometry" />
        </mxCell>
        <mxCell id="4qD5-4n64g_TP-5ePpoe-19" value="&lt;font style=&quot;font-size: 18px&quot;&gt;salary&lt;/font&gt;" style="ellipse;whiteSpace=wrap;html=1;" vertex="1" parent="1">
          <mxGeometry x="720" y="585" width="110" height="60" as="geometry" />
        </mxCell>
        <mxCell id="4qD5-4n64g_TP-5ePpoe-23" value="" style="endArrow=none;html=1;entryX=0.5;entryY=1;entryDx=0;entryDy=0;exitX=0.5;exitY=0;exitDx=0;exitDy=0;" edge="1" parent="1" source="4qD5-4n64g_TP-5ePpoe-16" target="4qD5-4n64g_TP-5ePpoe-15">
          <mxGeometry width="50" height="50" relative="1" as="geometry">
            <mxPoint x="530" y="575" as="sourcePoint" />
            <mxPoint x="600.04" y="575" as="targetPoint" />
          </mxGeometry>
        </mxCell>
        <mxCell id="4qD5-4n64g_TP-5ePpoe-24" value="" style="endArrow=none;html=1;entryX=0.5;entryY=1;entryDx=0;entryDy=0;exitX=0.5;exitY=0;exitDx=0;exitDy=0;" edge="1" parent="1" source="4qD5-4n64g_TP-5ePpoe-17" target="4qD5-4n64g_TP-5ePpoe-15">
          <mxGeometry width="50" height="50" relative="1" as="geometry">
            <mxPoint x="580.04" y="645" as="sourcePoint" />
            <mxPoint x="585.04" y="575" as="targetPoint" />
          </mxGeometry>
        </mxCell>
        <mxCell id="4qD5-4n64g_TP-5ePpoe-25" value="" style="endArrow=none;html=1;exitX=0.5;exitY=1;exitDx=0;exitDy=0;entryX=0.5;entryY=0;entryDx=0;entryDy=0;" edge="1" parent="1" source="4qD5-4n64g_TP-5ePpoe-15" target="4qD5-4n64g_TP-5ePpoe-19">
          <mxGeometry width="50" height="50" relative="1" as="geometry">
            <mxPoint x="535.04" y="625" as="sourcePoint" />
            <mxPoint x="710.04" y="645" as="targetPoint" />
          </mxGeometry>
        </mxCell>
        <mxCell id="4qD5-4n64g_TP-5ePpoe-28" value="" style="endArrow=none;html=1;entryX=0.5;entryY=1;entryDx=0;entryDy=0;exitX=0.5;exitY=0;exitDx=0;exitDy=0;" edge="1" parent="1" source="4qD5-4n64g_TP-5ePpoe-4" target="4qD5-4n64g_TP-5ePpoe-12">
          <mxGeometry width="50" height="50" relative="1" as="geometry">
            <mxPoint x="480" y="605" as="sourcePoint" />
            <mxPoint x="530" y="555" as="targetPoint" />
          </mxGeometry>
        </mxCell>
        <mxCell id="4qD5-4n64g_TP-5ePpoe-30" value="" style="endArrow=none;html=1;edgeStyle=orthogonalEdgeStyle;curved=1;" edge="1" parent="1">
          <mxGeometry width="50" height="50" relative="1" as="geometry">
            <mxPoint x="330" y="490" as="sourcePoint" />
            <mxPoint x="370" y="490" as="targetPoint" />
            <Array as="points">
              <mxPoint x="330" y="505" />
              <mxPoint x="370" y="505" />
            </Array>
          </mxGeometry>
        </mxCell>
        <mxCell id="4qD5-4n64g_TP-5ePpoe-31" value="&lt;font style=&quot;font-size: 18px&quot;&gt;works&lt;/font&gt;" style="rhombus;whiteSpace=wrap;html=1;" vertex="1" parent="1">
          <mxGeometry x="585" y="315" width="110" height="80" as="geometry" />
        </mxCell>
        <mxCell id="4qD5-4n64g_TP-5ePpoe-35" value="" style="endArrow=none;html=1;exitX=1;exitY=0.5;exitDx=0;exitDy=0;entryX=0.5;entryY=0;entryDx=0;entryDy=0;" edge="1" parent="1" source="4qD5-4n64g_TP-5ePpoe-2" target="4qD5-4n64g_TP-5ePpoe-31">
          <mxGeometry width="50" height="50" relative="1" as="geometry">
            <mxPoint x="470" y="375" as="sourcePoint" />
            <mxPoint x="520" y="325" as="targetPoint" />
            <Array as="points">
              <mxPoint x="470" y="315" />
            </Array>
          </mxGeometry>
        </mxCell>
        <mxCell id="4qD5-4n64g_TP-5ePpoe-40" value="" style="endArrow=none;html=1;entryX=0.5;entryY=0;entryDx=0;entryDy=0;exitX=0.5;exitY=1;exitDx=0;exitDy=0;" edge="1" parent="1" source="4qD5-4n64g_TP-5ePpoe-31" target="4qD5-4n64g_TP-5ePpoe-15">
          <mxGeometry width="50" height="50" relative="1" as="geometry">
            <mxPoint x="590" y="595" as="sourcePoint" />
            <mxPoint x="640" y="545" as="targetPoint" />
          </mxGeometry>
        </mxCell>
        <mxCell id="4qD5-4n64g_TP-5ePpoe-42" value="" style="endArrow=none;html=1;edgeStyle=orthogonalEdgeStyle;curved=1;" edge="1" parent="1">
          <mxGeometry width="50" height="50" relative="1" as="geometry">
            <mxPoint x="430" y="340" as="sourcePoint" />
            <mxPoint x="430" y="290" as="targetPoint" />
            <Array as="points">
              <mxPoint x="400" y="340" />
              <mxPoint x="400" y="290" />
            </Array>
          </mxGeometry>
        </mxCell>
        <mxCell id="4qD5-4n64g_TP-5ePpoe-43" value="&lt;font style=&quot;font-size: 18px&quot;&gt;maintain&lt;/font&gt;" style="rhombus;whiteSpace=wrap;html=1;" vertex="1" parent="1">
          <mxGeometry x="440" y="445" width="100" height="60" as="geometry" />
        </mxCell>
        <mxCell id="4qD5-4n64g_TP-5ePpoe-44" value="" style="endArrow=none;html=1;edgeStyle=orthogonalEdgeStyle;curved=1;" edge="1" parent="1">
          <mxGeometry width="50" height="50" relative="1" as="geometry">
            <mxPoint x="570" y="500" as="sourcePoint" />
            <mxPoint x="570" y="450" as="targetPoint" />
            <Array as="points">
              <mxPoint x="590" y="500" />
              <mxPoint x="590" y="450" />
            </Array>
          </mxGeometry>
        </mxCell>
        <mxCell id="4qD5-4n64g_TP-5ePpoe-45" value="" style="endArrow=none;html=1;exitX=1;exitY=0.5;exitDx=0;exitDy=0;entryX=0;entryY=0.5;entryDx=0;entryDy=0;" edge="1" parent="1" source="4qD5-4n64g_TP-5ePpoe-43" target="4qD5-4n64g_TP-5ePpoe-15">
          <mxGeometry width="50" height="50" relative="1" as="geometry">
            <mxPoint x="550" y="585" as="sourcePoint" />
            <mxPoint x="600" y="535" as="targetPoint" />
          </mxGeometry>
        </mxCell>
        <mxCell id="4qD5-4n64g_TP-5ePpoe-47" value="" style="endArrow=classic;html=1;entryX=1;entryY=0.5;entryDx=0;entryDy=0;exitX=0;exitY=0.5;exitDx=0;exitDy=0;" edge="1" parent="1" source="4qD5-4n64g_TP-5ePpoe-43" target="4qD5-4n64g_TP-5ePpoe-4">
          <mxGeometry width="50" height="50" relative="1" as="geometry">
            <mxPoint x="550" y="585" as="sourcePoint" />
            <mxPoint x="600" y="535" as="targetPoint" />
          </mxGeometry>
        </mxCell>
        <mxCell id="4qD5-4n64g_TP-5ePpoe-48" value="&lt;font style=&quot;font-size: 18px&quot;&gt;user&lt;/font&gt;" style="rounded=0;whiteSpace=wrap;html=1;" vertex="1" parent="1">
          <mxGeometry x="300" y="135" width="100" height="40" as="geometry" />
        </mxCell>
        <mxCell id="4qD5-4n64g_TP-5ePpoe-49" value="&lt;font style=&quot;font-size: 18px&quot;&gt;User_Name&lt;/font&gt;" style="ellipse;whiteSpace=wrap;html=1;" vertex="1" parent="1">
          <mxGeometry x="500" y="185" width="110" height="50" as="geometry" />
        </mxCell>
        <mxCell id="4qD5-4n64g_TP-5ePpoe-50" value="&lt;font style=&quot;font-size: 18px&quot;&gt;User_ID&lt;/font&gt;" style="ellipse;whiteSpace=wrap;html=1;" vertex="1" parent="1">
          <mxGeometry x="495" y="130" width="120" height="50" as="geometry" />
        </mxCell>
        <mxCell id="4qD5-4n64g_TP-5ePpoe-51" value="" style="endArrow=none;html=1;exitX=1;exitY=0.5;exitDx=0;exitDy=0;entryX=0;entryY=0.5;entryDx=0;entryDy=0;" edge="1" parent="1" source="4qD5-4n64g_TP-5ePpoe-48" target="4qD5-4n64g_TP-5ePpoe-50">
          <mxGeometry width="50" height="50" relative="1" as="geometry">
            <mxPoint x="480" y="455" as="sourcePoint" />
            <mxPoint x="530" y="405" as="targetPoint" />
          </mxGeometry>
        </mxCell>
        <mxCell id="4qD5-4n64g_TP-5ePpoe-52" value="" style="endArrow=none;html=1;entryX=0;entryY=0.5;entryDx=0;entryDy=0;" edge="1" parent="1" target="4qD5-4n64g_TP-5ePpoe-49">
          <mxGeometry width="50" height="50" relative="1" as="geometry">
            <mxPoint x="400" y="155" as="sourcePoint" />
            <mxPoint x="505" y="165" as="targetPoint" />
          </mxGeometry>
        </mxCell>
        <mxCell id="4qD5-4n64g_TP-5ePpoe-53" value="&lt;font style=&quot;font-size: 18px&quot;&gt;prefer&lt;/font&gt;" style="rhombus;whiteSpace=wrap;html=1;" vertex="1" parent="1">
          <mxGeometry x="277.5" y="215" width="145" height="45" as="geometry" />
        </mxCell>
        <mxCell id="4qD5-4n64g_TP-5ePpoe-55" value="" style="endArrow=none;html=1;exitX=0.5;exitY=0;exitDx=0;exitDy=0;entryX=0.5;entryY=1;entryDx=0;entryDy=0;" edge="1" parent="1" source="4qD5-4n64g_TP-5ePpoe-53" target="4qD5-4n64g_TP-5ePpoe-48">
          <mxGeometry width="50" height="50" relative="1" as="geometry">
            <mxPoint x="480" y="455" as="sourcePoint" />
            <mxPoint x="360" y="175" as="targetPoint" />
          </mxGeometry>
        </mxCell>
        <mxCell id="4qD5-4n64g_TP-5ePpoe-56" value="" style="endArrow=none;html=1;exitX=0.5;exitY=0;exitDx=0;exitDy=0;entryX=0.5;entryY=1;entryDx=0;entryDy=0;" edge="1" parent="1" source="4qD5-4n64g_TP-5ePpoe-2" target="4qD5-4n64g_TP-5ePpoe-53">
          <mxGeometry width="50" height="50" relative="1" as="geometry">
            <mxPoint x="355" y="225" as="sourcePoint" />
            <mxPoint x="355" y="185" as="targetPoint" />
          </mxGeometry>
        </mxCell>
        <mxCell id="4qD5-4n64g_TP-5ePpoe-57" value="" style="endArrow=none;html=1;edgeStyle=orthogonalEdgeStyle;curved=1;" edge="1" parent="1">
          <mxGeometry width="50" height="50" relative="1" as="geometry">
            <mxPoint x="330" y="280" as="sourcePoint" />
            <mxPoint x="370" y="280" as="targetPoint" />
            <Array as="points">
              <mxPoint x="330" y="295" />
              <mxPoint x="370" y="295" />
            </Array>
          </mxGeometry>
        </mxCell>
        <mxCell id="4qD5-4n64g_TP-5ePpoe-60" value="&lt;font style=&quot;font-size: 18px&quot;&gt;history&lt;/font&gt;" style="rounded=0;whiteSpace=wrap;html=1;" vertex="1" parent="1">
          <mxGeometry x="70" y="445" width="90" height="40" as="geometry" />
        </mxCell>
        <mxCell id="4qD5-4n64g_TP-5ePpoe-62" value="&lt;font style=&quot;font-size: 18px&quot;&gt;model&lt;/font&gt;" style="ellipse;whiteSpace=wrap;html=1;" vertex="1" parent="1">
          <mxGeometry x="305" y="600" width="90" height="50" as="geometry" />
        </mxCell>
        <mxCell id="4qD5-4n64g_TP-5ePpoe-63" value="&lt;font style=&quot;font-size: 18px&quot;&gt;purchase date&lt;/font&gt;" style="ellipse;whiteSpace=wrap;html=1;" vertex="1" parent="1">
          <mxGeometry x="385" y="635" width="130" height="60" as="geometry" />
        </mxCell>
        <mxCell id="4qD5-4n64g_TP-5ePpoe-64" value="" style="endArrow=none;html=1;exitX=0.5;exitY=0;exitDx=0;exitDy=0;entryX=0.5;entryY=1;entryDx=0;entryDy=0;startArrow=none;" edge="1" parent="1" source="4qD5-4n64g_TP-5ePpoe-61" target="4qD5-4n64g_TP-5ePpoe-4">
          <mxGeometry width="50" height="50" relative="1" as="geometry">
            <mxPoint x="250.96194077712562" y="656.2132034355964" as="sourcePoint" />
            <mxPoint x="310" y="540" as="targetPoint" />
          </mxGeometry>
        </mxCell>
        <mxCell id="4qD5-4n64g_TP-5ePpoe-61" value="&lt;font style=&quot;font-size: 17px&quot;&gt;&lt;u&gt;Drone_ID&lt;/u&gt;&lt;/font&gt;" style="ellipse;whiteSpace=wrap;html=1;" vertex="1" parent="1">
          <mxGeometry x="200" y="635" width="90" height="45" as="geometry" />
        </mxCell>
        <mxCell id="4qD5-4n64g_TP-5ePpoe-67" value="&lt;font style=&quot;font-size: 18px&quot;&gt;departure time&lt;/font&gt;" style="ellipse;whiteSpace=wrap;html=1;" vertex="1" parent="1">
          <mxGeometry x="-100" y="425" width="110" height="60" as="geometry" />
        </mxCell>
        <mxCell id="4qD5-4n64g_TP-5ePpoe-68" value="&lt;font style=&quot;font-size: 18px&quot;&gt;&lt;u&gt;delivery number&lt;/u&gt;&lt;/font&gt;" style="ellipse;whiteSpace=wrap;html=1;" vertex="1" parent="1">
          <mxGeometry x="-90" y="335" width="100" height="55" as="geometry" />
        </mxCell>
        <mxCell id="4qD5-4n64g_TP-5ePpoe-71" value="&lt;font style=&quot;font-size: 18px&quot;&gt;arrival time&lt;/font&gt;" style="ellipse;whiteSpace=wrap;html=1;" vertex="1" parent="1">
          <mxGeometry x="-100" y="505" width="110" height="65" as="geometry" />
        </mxCell>
        <mxCell id="4qD5-4n64g_TP-5ePpoe-72" value="&lt;font style=&quot;font-size: 18px&quot;&gt;return time&lt;/font&gt;" style="ellipse;whiteSpace=wrap;html=1;" vertex="1" parent="1">
          <mxGeometry x="-95" y="590" width="110" height="65" as="geometry" />
        </mxCell>
        <mxCell id="4qD5-4n64g_TP-5ePpoe-73" value="" style="endArrow=none;html=1;exitX=1;exitY=0.5;exitDx=0;exitDy=0;entryX=0;entryY=0.5;entryDx=0;entryDy=0;" edge="1" parent="1" source="4qD5-4n64g_TP-5ePpoe-68" target="4qD5-4n64g_TP-5ePpoe-60">
          <mxGeometry width="50" height="50" relative="1" as="geometry">
            <mxPoint x="190" y="290" as="sourcePoint" />
            <mxPoint x="240" y="240" as="targetPoint" />
          </mxGeometry>
        </mxCell>
        <mxCell id="4qD5-4n64g_TP-5ePpoe-74" value="" style="endArrow=none;html=1;exitX=1;exitY=0.5;exitDx=0;exitDy=0;" edge="1" parent="1" source="4qD5-4n64g_TP-5ePpoe-67">
          <mxGeometry width="50" height="50" relative="1" as="geometry">
            <mxPoint x="20.000000000005684" y="372.5" as="sourcePoint" />
            <mxPoint x="70" y="470" as="targetPoint" />
          </mxGeometry>
        </mxCell>
        <mxCell id="4qD5-4n64g_TP-5ePpoe-75" value="" style="endArrow=none;html=1;exitX=1;exitY=0.5;exitDx=0;exitDy=0;entryX=0;entryY=0.5;entryDx=0;entryDy=0;" edge="1" parent="1" source="4qD5-4n64g_TP-5ePpoe-71" target="4qD5-4n64g_TP-5ePpoe-60">
          <mxGeometry width="50" height="50" relative="1" as="geometry">
            <mxPoint x="30" y="550" as="sourcePoint" />
            <mxPoint x="120" y="470" as="targetPoint" />
          </mxGeometry>
        </mxCell>
        <mxCell id="4qD5-4n64g_TP-5ePpoe-76" value="" style="endArrow=none;html=1;exitX=1;exitY=0.5;exitDx=0;exitDy=0;entryX=0;entryY=0.5;entryDx=0;entryDy=0;" edge="1" parent="1" source="4qD5-4n64g_TP-5ePpoe-72" target="4qD5-4n64g_TP-5ePpoe-60">
          <mxGeometry width="50" height="50" relative="1" as="geometry">
            <mxPoint x="190" y="290" as="sourcePoint" />
            <mxPoint x="240" y="240" as="targetPoint" />
          </mxGeometry>
        </mxCell>
        <mxCell id="4qD5-4n64g_TP-5ePpoe-78" value="&lt;font style=&quot;font-size: 18px&quot;&gt;track&lt;/font&gt;" style="rhombus;whiteSpace=wrap;html=1;" vertex="1" parent="1">
          <mxGeometry x="160" y="507.5" width="85" height="45" as="geometry" />
        </mxCell>
        <mxCell id="4qD5-4n64g_TP-5ePpoe-80" value="" style="endArrow=none;html=1;exitX=0.5;exitY=1;exitDx=0;exitDy=0;entryX=0;entryY=0.5;entryDx=0;entryDy=0;" edge="1" parent="1" source="4qD5-4n64g_TP-5ePpoe-60" target="4qD5-4n64g_TP-5ePpoe-78">
          <mxGeometry width="50" height="50" relative="1" as="geometry">
            <mxPoint x="190" y="290" as="sourcePoint" />
            <mxPoint x="240" y="240" as="targetPoint" />
          </mxGeometry>
        </mxCell>
        <mxCell id="4qD5-4n64g_TP-5ePpoe-81" value="" style="endArrow=none;html=1;exitX=1;exitY=0.5;exitDx=0;exitDy=0;entryX=0;entryY=0.5;entryDx=0;entryDy=0;" edge="1" parent="1" source="4qD5-4n64g_TP-5ePpoe-78" target="4qD5-4n64g_TP-5ePpoe-4">
          <mxGeometry width="50" height="50" relative="1" as="geometry">
            <mxPoint x="190" y="290" as="sourcePoint" />
            <mxPoint x="240" y="240" as="targetPoint" />
          </mxGeometry>
        </mxCell>
        <mxCell id="4qD5-4n64g_TP-5ePpoe-88" value="" style="endArrow=none;html=1;edgeStyle=orthogonalEdgeStyle;curved=1;" edge="1" parent="1">
          <mxGeometry width="50" height="50" relative="1" as="geometry">
            <mxPoint x="280" y="555" as="sourcePoint" />
            <mxPoint x="280" y="505" as="targetPoint" />
            <Array as="points">
              <mxPoint x="300" y="555" />
              <mxPoint x="300" y="505" />
            </Array>
          </mxGeometry>
        </mxCell>
        <mxCell id="4qD5-4n64g_TP-5ePpoe-89" value="&lt;font style=&quot;font-size: 18px&quot;&gt;deliver&lt;/font&gt;" style="rhombus;whiteSpace=wrap;html=1;" vertex="1" parent="1">
          <mxGeometry x="110" y="350" width="80" height="55" as="geometry" />
        </mxCell>
        <mxCell id="4qD5-4n64g_TP-5ePpoe-90" value="" style="endArrow=none;html=1;exitX=0.5;exitY=0;exitDx=0;exitDy=0;entryX=0.5;entryY=1;entryDx=0;entryDy=0;" edge="1" parent="1" source="4qD5-4n64g_TP-5ePpoe-60" target="4qD5-4n64g_TP-5ePpoe-89">
          <mxGeometry width="50" height="50" relative="1" as="geometry">
            <mxPoint x="190" y="290" as="sourcePoint" />
            <mxPoint x="240" y="240" as="targetPoint" />
          </mxGeometry>
        </mxCell>
        <mxCell id="4qD5-4n64g_TP-5ePpoe-92" value="" style="endArrow=none;html=1;exitX=0.5;exitY=0;exitDx=0;exitDy=0;entryX=0;entryY=0.5;entryDx=0;entryDy=0;" edge="1" parent="1" source="4qD5-4n64g_TP-5ePpoe-89" target="4qD5-4n64g_TP-5ePpoe-48">
          <mxGeometry width="50" height="50" relative="1" as="geometry">
            <mxPoint x="190" y="290" as="sourcePoint" />
            <mxPoint x="240" y="240" as="targetPoint" />
          </mxGeometry>
        </mxCell>
        <mxCell id="4qD5-4n64g_TP-5ePpoe-93" value="" style="endArrow=none;html=1;edgeStyle=orthogonalEdgeStyle;curved=1;" edge="1" parent="1">
          <mxGeometry width="50" height="50" relative="1" as="geometry">
            <mxPoint x="280" y="185" as="sourcePoint" />
            <mxPoint x="280" y="135" as="targetPoint" />
            <Array as="points">
              <mxPoint x="300" y="185" />
              <mxPoint x="300" y="135" />
            </Array>
          </mxGeometry>
        </mxCell>
      </root>
    </mxGraphModel>
  </diagram>
</mxfile>
